<svg xmlns="http://www.w3.org/2000/svg" xmlns:xlink="http://www.w3.org/1999/xlink" contentStyleType="text/css" data-diagram-type="ACTIVITY" height="1843.75px" preserveAspectRatio="none" style="width:1571px;height:1843px;background:#FFFFFF;" version="1.1" viewBox="0 0 1571 1843" width="1571.875px" zoomAndPan="magnify"><title>MAPE-K Execution Phase
(Focused Sub-Process)</title><defs/><g><g class="title" data-source-line="24"><text fill="#000000" font-family="sans-serif" font-size="43.75" font-weight="bold" lengthAdjust="spacing" textLength="534.848" x="514.8697" y="170.4163">MAPE-K Execution Phase</text><text fill="#000000" font-family="sans-serif" font-size="43.75" font-weight="bold" lengthAdjust="spacing" textLength="488.6414" x="537.973" y="225.4456">(Focused Sub-Process)</text></g><ellipse cx="437.3962" cy="363.1836" fill="#222222" rx="31.25" ry="31.25" style="stroke:#222222;stroke-width:3.125;"/><rect fill="#F3E5F5" height="1252.6367" style="stroke:#4A148C;stroke-width:4.6875;" width="1505.2124" x="34.375" y="425.6836"/><path d="M515.6921,425.6836 L515.6921,575.9766 L484.4421,607.2266 L34.375,607.2266" fill="none" style="stroke:#4A148C;stroke-width:4.6875;"/><text fill="#000000" font-family="sans-serif" font-size="37.5" font-weight="bold" lengthAdjust="spacing" textLength="325.0671" x="106.25" y="530.2368">MAPE-K : Execute</text><path d="M871.6675,638.4766 L871.6675,774.8535 L809.1675,787.3535 L871.6675,799.8535 L871.6675,936.2305 A0,0 0 0 0 871.6675,936.2305 L1508.3374,936.2305 A0,0 0 0 0 1508.3374,936.2305 L1508.3374,669.7266 L1477.0874,638.4766 L871.6675,638.4766 A0,0 0 0 0 871.6675,638.4766" fill="#FFF9C4" style="stroke:#F57F17;stroke-width:1.5625;"/><path d="M1477.0874,638.4766 L1477.0874,669.7266 L1508.3374,669.7266 L1477.0874,638.4766" fill="#FFF9C4" style="stroke:#F57F17;stroke-width:1.5625;"/><text fill="#000000" font-family="sans-serif" font-size="37.5" lengthAdjust="spacing" textLength="358.4473" x="952.9175" y="755.5298">(8) Executor retrieves</text><text fill="#000000" font-family="sans-serif" font-size="37.5" lengthAdjust="spacing" textLength="406.5674" x="952.9175" y="802.6978">adaptation option details</text><text fill="#000000" font-family="sans-serif" font-size="37.5" lengthAdjust="spacing" textLength="446.0449" x="952.9175" y="849.8657">from Knowledge repository</text><rect fill="#E1F5FE" height="230.7373" rx="39.0625" ry="39.0625" style="stroke:#01579B;stroke-width:1.5625;" width="743.5425" x="65.625" y="671.9849"/><text fill="#000000" font-family="sans-serif" font-size="34.375" lengthAdjust="spacing" textLength="556.0425" x="159.375" y="801.4191">Executor retrieves adaptation details</text><path d="M804.7516,998.7305 L804.7516,1249.3164 L1393.5577,1249.3164 L1393.5577,1029.9805 L1362.3077,998.7305 L804.7516,998.7305" fill="#FFF9C4" style="stroke:#F57F17;stroke-width:1.5625;"/><path d="M1362.3077,998.7305 L1362.3077,1029.9805 L1393.5577,1029.9805 L1362.3077,998.7305" fill="#FFF9C4" style="stroke:#F57F17;stroke-width:1.5625;"/><text fill="#000000" font-family="sans-serif" font-size="37.5" lengthAdjust="spacing" textLength="398.1812" x="886.0016" y="1115.7837">(9) Adaptation executed</text><text fill="#000000" font-family="sans-serif" font-size="37.5" lengthAdjust="spacing" textLength="337.6831" x="886.0016" y="1162.9517">on managed system</text><path d="M774.5209,1311.8164 L774.5209,1609.5703 L1423.7885,1609.5703 L1423.7885,1343.0664 L1392.5385,1311.8164 L774.5209,1311.8164" fill="#FFF9C4" style="stroke:#F57F17;stroke-width:1.5625;"/><path d="M1392.5385,1311.8164 L1392.5385,1343.0664 L1423.7885,1343.0664 L1392.5385,1311.8164" fill="#FFF9C4" style="stroke:#F57F17;stroke-width:1.5625;"/><text fill="#000000" font-family="sans-serif" font-size="37.5" lengthAdjust="spacing" textLength="458.6426" x="855.7709" y="1428.8696">Enacts adaptation decision,</text><text fill="#000000" font-family="sans-serif" font-size="37.5" lengthAdjust="spacing" textLength="356.488" x="855.7709" y="1476.0376">translating option into</text><text fill="#000000" font-family="sans-serif" font-size="37.5" lengthAdjust="spacing" textLength="373.0957" x="855.7709" y="1523.2056">concrete modifications</text><rect fill="#E1F5FE" height="273.9746" rx="39.0625" ry="39.0625" style="stroke:#01579B;stroke-width:1.5625;" width="611.7493" x="131.5216" y="1167.1631"/><text fill="#000000" font-family="sans-serif" font-size="34.375" lengthAdjust="spacing" textLength="424.2493" x="225.2716" y="1296.5973">Executor applies adaptation</text><text fill="#000000" font-family="sans-serif" font-size="34.375" lengthAdjust="spacing" textLength="299.9756" x="225.2716" y="1339.8346">to managed system</text><ellipse cx="437.3962" cy="1775.1953" fill="none" rx="34.375" ry="34.375" style="stroke:#222222;stroke-width:3.125;"/><ellipse cx="437.3962" cy="1775.1953" fill="#222222" rx="18.75" ry="18.75" style="stroke:#222222;stroke-width:3.125;"/><line style="stroke:#181818;stroke-width:3.125;" x1="437.3962" x2="437.3962" y1="902.7222" y2="1167.1631"/><polygon fill="#181818" points="424.8962,1135.9131,437.3962,1167.1631,449.8962,1135.9131,437.3962,1148.4131" style="stroke:#181818;stroke-width:3.125;"/><line style="stroke:#181818;stroke-width:3.125;" x1="437.3962" x2="437.3962" y1="394.4336" y2="671.9849"/><polygon fill="#181818" points="424.8962,640.7349,437.3962,671.9849,449.8962,640.7349,437.3962,653.2349" style="stroke:#181818;stroke-width:3.125;"/><line style="stroke:#181818;stroke-width:3.125;" x1="437.3962" x2="437.3962" y1="1441.1377" y2="1740.8203"/><polygon fill="#181818" points="424.8962,1709.5703,437.3962,1740.8203,449.8962,1709.5703,437.3962,1722.0703" style="stroke:#181818;stroke-width:3.125;"/><!--SRC=[TPFDRjim48JlV0eslSH00rYE1SVfoN55j0W26CYXbrmOSYKlGf42IILnYxnxDxG0_RZMGH1tjDyEXz8N3ILQu3zsl_ZrVCx22zf6UbbptU2q0gLiJHJEnaVy0pnR3CHQlZz02BA2f2r6dL95VCLuu7yPf-jEgfVAkzRghJFEywz59d9H73NdDVYkFi_orVekrVkf6ViOeEaUCQApvzZYkiX5VifURhBbpNR2NlJhU330dvtHet7MHJWxIOZrTdawIUGhaQqchhL6Mr5CmmZHReqCuJVgkEV_Ktu2Lliuai9UQlVsoIgb2S0e3FBziDaLL_UyU0VLfd1sUndWoLuAfze0cZ-sprSxxnGTsOon42b5nleiBph0ROU0YsxJjySrRSj3z0Yl4BZKieaozMc84atudjvDMVbFnsd9-UNDZ9_sT-A0ufeXhDDBxsf-RzsR0LqH5neNa427f8FLQHwRk9HDOt3aySb6Hr-hfIzLyt084UfpTjSplkbTmJ49tQbK6LF6FZuO6m4BIp_192k5WHw-aHgzjC5GdSwnspsIJrAKiugY0buxZIMgr1jOlzyGNSF-0G00]--></g></svg>