<svg xmlns="http://www.w3.org/2000/svg" xmlns:xlink="http://www.w3.org/1999/xlink" contentStyleType="text/css" data-diagram-type="ACTIVITY" height="2906.25px" preserveAspectRatio="none" style="width:1693px;height:2906px;background:#FFFFFF;" version="1.1" viewBox="0 0 1693 2906" width="1693.75px" zoomAndPan="magnify"><title>MAPE-K : Execute Phase
(Focused Sub-Process View)</title><defs/><g><g class="title" data-source-line="24"><text fill="#000000" font-family="sans-serif" font-size="43.75" font-weight="bold" lengthAdjust="spacing" textLength="520.3003" x="582.6141" y="170.4163">MAPE-K : Execute Phase</text><text fill="#000000" font-family="sans-serif" font-size="43.75" font-weight="bold" lengthAdjust="spacing" textLength="600.4944" x="542.5171" y="225.4456">(Focused Sub-Process View)</text></g><ellipse cx="437.3962" cy="363.1836" fill="#222222" rx="31.25" ry="31.25" style="stroke:#222222;stroke-width:3.125;"/><rect fill="#F3E5F5" height="546.1426" style="stroke:#4A148C;stroke-width:4.6875;" width="1176.4023" x="174.8207" y="425.6836"/><path d="M422.6967,425.6836 L422.6967,575.9766 L391.4467,607.2266 L174.8207,607.2266" fill="none" style="stroke:#4A148C;stroke-width:4.6875;"/><text fill="#000000" font-family="sans-serif" font-size="37.5" font-weight="bold" lengthAdjust="spacing" textLength="91.626" x="246.6957" y="530.2368">Input</text><path d="M731.2218,672.0459 L731.2218,784.8389 L668.7218,797.3389 L731.2218,809.8389 L731.2218,922.6318 A0,0 0 0 0 731.2218,922.6318 L1319.973,922.6318 A0,0 0 0 0 1319.973,922.6318 L1319.973,703.2959 L1288.723,672.0459 L731.2218,672.0459 A0,0 0 0 0 731.2218,672.0459" fill="#FFF9C4" style="stroke:#F57F17;stroke-width:1.5625;"/><path d="M1288.723,672.0459 L1288.723,703.2959 L1319.973,703.2959 L1288.723,672.0459" fill="#FFF9C4" style="stroke:#F57F17;stroke-width:1.5625;"/><text fill="#000000" font-family="sans-serif" font-size="37.5" lengthAdjust="spacing" textLength="398.1262" x="812.4718" y="789.0991">From Adaptation Option</text><text fill="#000000" font-family="sans-serif" font-size="37.5" lengthAdjust="spacing" textLength="314.7217" x="812.4718" y="836.2671">Predictor (Stage 7)</text><rect fill="#E1F5FE" height="273.9746" rx="39.0625" ry="39.0625" style="stroke:#01579B;stroke-width:1.5625;" width="462.6511" x="206.0707" y="660.3516"/><text fill="#000000" font-family="sans-serif" font-size="34.375" lengthAdjust="spacing" textLength="275.1511" x="299.8207" y="789.7858">Receive predicted</text><text fill="#000000" font-family="sans-serif" font-size="34.375" lengthAdjust="spacing" textLength="263.7711" x="299.8207" y="833.0231">adaptation option</text><rect fill="#F3E5F5" height="882.6172" style="stroke:#4A148C;stroke-width:4.6875;" width="1626.1536" x="34.375" y="1003.0762"/><path d="M515.6921,1003.0762 L515.6921,1153.3691 L484.4421,1184.6191 L34.375,1184.6191" fill="none" style="stroke:#4A148C;stroke-width:4.6875;"/><text fill="#000000" font-family="sans-serif" font-size="37.5" font-weight="bold" lengthAdjust="spacing" textLength="325.0671" x="106.25" y="1107.6294">MAPE-K : Execute</text><path d="M871.6675,1249.4385 L871.6675,1362.2314 L809.1675,1374.7314 L871.6675,1387.2314 L871.6675,1500.0244 A0,0 0 0 0 871.6675,1500.0244 L1629.2786,1500.0244 A0,0 0 0 0 1629.2786,1500.0244 L1629.2786,1280.6885 L1598.0286,1249.4385 L871.6675,1249.4385 A0,0 0 0 0 871.6675,1249.4385" fill="#FFF9C4" style="stroke:#F57F17;stroke-width:1.5625;"/><path d="M1598.0286,1249.4385 L1598.0286,1280.6885 L1629.2786,1280.6885 L1598.0286,1249.4385" fill="#FFF9C4" style="stroke:#F57F17;stroke-width:1.5625;"/><text fill="#000000" font-family="sans-serif" font-size="37.5" lengthAdjust="spacing" textLength="510.6995" x="952.9175" y="1366.4917">(8) Adaptation details retrieved</text><text fill="#000000" font-family="sans-serif" font-size="37.5" lengthAdjust="spacing" textLength="566.9861" x="952.9175" y="1413.6597">from adaptation options repository</text><rect fill="#E1F5FE" height="273.9746" rx="39.0625" ry="39.0625" style="stroke:#01579B;stroke-width:1.5625;" width="743.5425" x="65.625" y="1237.7441"/><text fill="#000000" font-family="sans-serif" font-size="34.375" lengthAdjust="spacing" textLength="556.0425" x="159.375" y="1367.1783">Executor retrieves adaptation details</text><text fill="#000000" font-family="sans-serif" font-size="34.375" lengthAdjust="spacing" textLength="408.8745" x="159.375" y="1410.4156">from Knowledge repository</text><path d="M805.7709,1585.9131 L805.7709,1698.7061 L743.2709,1711.2061 L805.7709,1723.7061 L805.7709,1836.499 A0,0 0 0 0 805.7709,1836.499 L1482.0465,1836.499 A0,0 0 0 0 1482.0465,1836.499 L1482.0465,1617.1631 L1450.7965,1585.9131 L805.7709,1585.9131 A0,0 0 0 0 805.7709,1585.9131" fill="#FFF9C4" style="stroke:#F57F17;stroke-width:1.5625;"/><path d="M1450.7965,1585.9131 L1450.7965,1617.1631 L1482.0465,1617.1631 L1450.7965,1585.9131" fill="#FFF9C4" style="stroke:#F57F17;stroke-width:1.5625;"/><text fill="#000000" font-family="sans-serif" font-size="37.5" lengthAdjust="spacing" textLength="398.1812" x="887.0209" y="1702.9663">(9) Adaptation executed</text><text fill="#000000" font-family="sans-serif" font-size="37.5" lengthAdjust="spacing" textLength="485.6506" x="887.0209" y="1750.1343">System modifications applied</text><rect fill="#E1F5FE" height="273.9746" rx="39.0625" ry="39.0625" style="stroke:#01579B;stroke-width:1.5625;" width="611.7493" x="131.5216" y="1574.2188"/><text fill="#000000" font-family="sans-serif" font-size="34.375" lengthAdjust="spacing" textLength="424.2493" x="225.2716" y="1703.653">Executor applies adaptation</text><text fill="#000000" font-family="sans-serif" font-size="34.375" lengthAdjust="spacing" textLength="299.9756" x="225.2716" y="1746.8903">to managed system</text><rect fill="#F3E5F5" height="825.3662" style="stroke:#4A148C;stroke-width:4.6875;" width="1348.8937" x="114.6309" y="1916.9434"/><path d="M393.7447,1916.9434 L393.7447,2067.2363 L362.4947,2098.4863 L114.6309,2098.4863" fill="none" style="stroke:#4A148C;stroke-width:4.6875;"/><text fill="#000000" font-family="sans-serif" font-size="37.5" font-weight="bold" lengthAdjust="spacing" textLength="122.8638" x="186.5059" y="2021.4966">Output</text><path d="M791.4116,2151.062 L791.4116,2263.855 L728.9116,2276.355 L791.4116,2288.855 L791.4116,2401.6479 A0,0 0 0 0 791.4116,2401.6479 L1432.2746,2401.6479 A0,0 0 0 0 1432.2746,2401.6479 L1432.2746,2182.312 L1401.0246,2151.062 L791.4116,2151.062 A0,0 0 0 0 791.4116,2151.062" fill="#FFF9C4" style="stroke:#F57F17;stroke-width:1.5625;"/><path d="M1401.0246,2151.062 L1401.0246,2182.312 L1432.2746,2182.312 L1401.0246,2151.062" fill="#FFF9C4" style="stroke:#F57F17;stroke-width:1.5625;"/><text fill="#000000" font-family="sans-serif" font-size="37.5" lengthAdjust="spacing" textLength="450.238" x="872.6616" y="2268.1152">Managed system responds</text><text fill="#000000" font-family="sans-serif" font-size="37.5" lengthAdjust="spacing" textLength="216.8518" x="872.6616" y="2315.2832">to adaptation</text><rect fill="#E1F5FE" height="230.7373" rx="39.0625" ry="39.0625" style="stroke:#01579B;stroke-width:1.5625;" width="583.0307" x="145.8809" y="2160.9863"/><text fill="#000000" font-family="sans-serif" font-size="34.375" lengthAdjust="spacing" textLength="395.5307" x="239.6309" y="2290.4205">System behavior changes</text><path d="M741.7122,2454.2236 L741.7122,2567.0166 L679.2122,2579.5166 L741.7122,2592.0166 L741.7122,2704.8096 A0,0 0 0 0 741.7122,2704.8096 L1351.3191,2704.8096 A0,0 0 0 0 1351.3191,2704.8096 L1351.3191,2485.4736 L1320.0691,2454.2236 L741.7122,2454.2236 A0,0 0 0 0 741.7122,2454.2236" fill="#FFF9C4" style="stroke:#F57F17;stroke-width:1.5625;"/><path d="M1320.0691,2454.2236 L1320.0691,2485.4736 L1351.3191,2485.4736 L1320.0691,2454.2236" fill="#FFF9C4" style="stroke:#F57F17;stroke-width:1.5625;"/><text fill="#000000" font-family="sans-serif" font-size="37.5" lengthAdjust="spacing" textLength="418.9819" x="822.9622" y="2571.2769">Environmental conditions</text><text fill="#000000" font-family="sans-serif" font-size="37.5" lengthAdjust="spacing" textLength="204.2908" x="822.9622" y="2618.4448">may change</text><rect fill="#E1F5FE" height="230.7373" rx="39.0625" ry="39.0625" style="stroke:#01579B;stroke-width:1.5625;" width="483.6319" x="195.5803" y="2464.1479"/><text fill="#000000" font-family="sans-serif" font-size="34.375" lengthAdjust="spacing" textLength="296.1319" x="289.3303" y="2593.5822">Environment reacts</text><ellipse cx="437.3962" cy="2839.1846" fill="none" rx="34.375" ry="34.375" style="stroke:#222222;stroke-width:3.125;"/><ellipse cx="437.3962" cy="2839.1846" fill="#222222" rx="18.75" ry="18.75" style="stroke:#222222;stroke-width:3.125;"/><line style="stroke:#181818;stroke-width:3.125;" x1="437.3962" x2="437.3962" y1="394.4336" y2="660.3516"/><polygon fill="#181818" points="424.8962,629.1016,437.3962,660.3516,449.8962,629.1016,437.3962,641.6016" style="stroke:#181818;stroke-width:3.125;"/><line style="stroke:#181818;stroke-width:3.125;" x1="437.3962" x2="437.3962" y1="1511.7188" y2="1574.2188"/><polygon fill="#181818" points="424.8962,1542.9688,437.3962,1574.2188,449.8962,1542.9688,437.3962,1555.4688" style="stroke:#181818;stroke-width:3.125;"/><line style="stroke:#181818;stroke-width:3.125;" x1="437.3962" x2="437.3962" y1="934.3262" y2="1237.7441"/><polygon fill="#181818" points="424.8962,1206.4941,437.3962,1237.7441,449.8962,1206.4941,437.3962,1218.9941" style="stroke:#181818;stroke-width:3.125;"/><line style="stroke:#181818;stroke-width:3.125;" x1="437.3962" x2="437.3962" y1="2391.7236" y2="2464.1479"/><polygon fill="#181818" points="424.8962,2432.8979,437.3962,2464.1479,449.8962,2432.8979,437.3962,2445.3979" style="stroke:#181818;stroke-width:3.125;"/><line style="stroke:#181818;stroke-width:3.125;" x1="437.3962" x2="437.3962" y1="1848.1934" y2="2160.9863"/><polygon fill="#181818" points="424.8962,2129.7363,437.3962,2160.9863,449.8962,2129.7363,437.3962,2142.2363" style="stroke:#181818;stroke-width:3.125;"/><line style="stroke:#181818;stroke-width:3.125;" x1="437.3962" x2="437.3962" y1="2694.8853" y2="2804.8096"/><polygon fill="#181818" points="424.8962,2773.5596,437.3962,2804.8096,449.8962,2773.5596,437.3962,2786.0596" style="stroke:#181818;stroke-width:3.125;"/><!--SRC=[VPH1Zzem48Nl-HNkzWA7bGXBnB8ziPIegnLQLAJsmiN40ndXs97jmDAg_xqJ9om9DEKGPC_ulMzU37QFAkU6Pr8dUn1ieuq0mw91y4d05XMmhyiNzZ0O1FRSoKIErpkmvOLqiLPkXR-0XSD6CUFl2x2Mxy3NXgsJF75uG7TYlmD6dsUUx7T65qhCjDI6VPw7SHJFgvf7g_S7OJIUFFlzYsiO_6b8qzEXGwswjEE7UHH7jzgZQJXwd5rf3ozhTv90GKdHibFQGQTJ74zcerkdE1h7uVYAMWXKEugf6I6gcUJM_aJXKlQloZV0NUfQ9PjoeO-brfPB2m65GToBwN9-_ygUsFmTaeAGbocti5QzM2U5fHkmAZRtIwCJUcNi1yAn7mJMKPH1S0dqxaNbXRkhnttw3WdW0LXkG63YGAmL5pntt3VhlFpwubjzIAP4zKiArEYCJI_DRxwvBYuhFKggjt9qVzYuxokWX5UYu9fGrwDzy5LhaZ7W3C81B6lm2N0SfLshRSdoglHHWY0p0xcsICTE7UozntuJlTRvC15rcvUzoSCszDj3bOihRfxd4blKQ-Kq_R8KfIAOFLa7MHVbf4K9LJPdk9K_oZ8jS8i9hyWgE_6_hDyArxm1jSm6Kdv00avIhdPWEv0MBMuAmkPQ2LjNQR3Bd9tHg0CQhJ9GZixJlqYNLwEHIvQGZv_WR9RnKmrxCwrrEW_-0W00]--></g></svg>