<svg xmlns="http://www.w3.org/2000/svg" xmlns:xlink="http://www.w3.org/1999/xlink" contentStyleType="text/css" data-diagram-type="ACTIVITY" height="2650px" preserveAspectRatio="none" style="width:1562px;height:2650px;background:#FFFFFF;" version="1.1" viewBox="0 0 1562 2650" width="1562.5px" zoomAndPan="magnify"><title>Action Selection and Environment Interaction
(Focused Sub-Process)</title><defs/><g><g class="title" data-source-line="24"><text fill="#000000" font-family="sans-serif" font-size="43.75" font-weight="bold" lengthAdjust="spacing" textLength="948.0377" x="303.1776" y="170.4163">Action Selection and Environment Interaction</text><text fill="#000000" font-family="sans-serif" font-size="43.75" font-weight="bold" lengthAdjust="spacing" textLength="488.6414" x="532.8758" y="225.4456">(Focused Sub-Process)</text></g><ellipse cx="366.674" cy="363.1836" fill="#222222" rx="31.25" ry="31.25" style="stroke:#222222;stroke-width:3.125;"/><rect fill="#F3E5F5" height="546.1426" style="stroke:#4A148C;stroke-width:4.6875;" width="1495.018" x="34.375" y="425.6836"/><path d="M484.4177,425.6836 L484.4177,575.9766 L453.1677,607.2266 L34.375,607.2266" fill="none" style="stroke:#4A148C;stroke-width:4.6875;"/><text fill="#000000" font-family="sans-serif" font-size="37.5" font-weight="bold" lengthAdjust="spacing" textLength="293.7927" x="106.25" y="530.2368">Action Selection</text><path d="M730.2231,672.0459 L730.2231,784.8389 L667.7231,797.3389 L730.2231,809.8389 L730.2231,922.6318 A0,0 0 0 0 730.2231,922.6318 L1498.143,922.6318 A0,0 0 0 0 1498.143,922.6318 L1498.143,703.2959 L1466.893,672.0459 L730.2231,672.0459 A0,0 0 0 0 730.2231,672.0459" fill="#FFF9C4" style="stroke:#F57F17;stroke-width:1.5625;"/><path d="M1466.893,672.0459 L1466.893,703.2959 L1498.143,703.2959 L1466.893,672.0459" fill="#FFF9C4" style="stroke:#F57F17;stroke-width:1.5625;"/><text fill="#000000" font-family="sans-serif" font-size="37.5" lengthAdjust="spacing" textLength="541.9556" x="811.4731" y="789.0991">With probability &#949;: random action</text><text fill="#000000" font-family="sans-serif" font-size="37.5" lengthAdjust="spacing" textLength="577.2949" x="811.4731" y="836.2671">With probability 1-&#949;: argmax Q(s,a)</text><rect fill="#E1F5FE" height="273.9746" rx="39.0625" ry="39.0625" style="stroke:#01579B;stroke-width:1.5625;" width="602.0981" x="65.625" y="660.3516"/><text fill="#000000" font-family="sans-serif" font-size="34.375" lengthAdjust="spacing" textLength="254.1534" x="159.375" y="789.7858">Select action a_t</text><text fill="#000000" font-family="sans-serif" font-size="34.375" lengthAdjust="spacing" textLength="414.5981" x="159.375" y="833.0231">(&#949;-greedy using Q-network)</text><rect fill="#F3E5F5" height="1482.7881" style="stroke:#4A148C;stroke-width:4.6875;" width="1346.9467" x="50.119" y="1003.0762"/><path d="M637.674,1003.0762 L637.674,1153.3691 L606.424,1184.6191 L50.119,1184.6191" fill="none" style="stroke:#4A148C;stroke-width:4.6875;"/><text fill="#000000" font-family="sans-serif" font-size="37.5" font-weight="bold" lengthAdjust="spacing" textLength="431.3049" x="121.994" y="1107.6294">Environment Interaction</text><path d="M664.3349,1237.1948 L664.3349,1349.9878 L601.8349,1362.4878 L664.3349,1374.9878 L664.3349,1487.7808 A0,0 0 0 0 664.3349,1487.7808 L1294.7975,1487.7808 A0,0 0 0 0 1294.7975,1487.7808 L1294.7975,1268.4448 L1263.5475,1237.1948 L664.3349,1237.1948 A0,0 0 0 0 664.3349,1237.1948" fill="#FFF9C4" style="stroke:#F57F17;stroke-width:1.5625;"/><path d="M1263.5475,1237.1948 L1263.5475,1268.4448 L1294.7975,1268.4448 L1263.5475,1237.1948" fill="#FFF9C4" style="stroke:#F57F17;stroke-width:1.5625;"/><text fill="#000000" font-family="sans-serif" font-size="37.5" lengthAdjust="spacing" textLength="429.4739" x="745.5849" y="1354.248">Apply selected adaptation</text><text fill="#000000" font-family="sans-serif" font-size="37.5" lengthAdjust="spacing" textLength="439.8376" x="745.5849" y="1401.416">option to managed system</text><rect fill="#E1F5FE" height="230.7373" rx="39.0625" ry="39.0625" style="stroke:#01579B;stroke-width:1.5625;" width="470.3217" x="131.5132" y="1247.1191"/><text fill="#000000" font-family="sans-serif" font-size="34.375" lengthAdjust="spacing" textLength="282.8217" x="225.2632" y="1376.5533">Execute action a_t</text><path d="M670.0249,1540.3564 L670.0249,1653.1494 L607.5249,1665.6494 L670.0249,1678.1494 L670.0249,1790.9424 A0,0 0 0 0 670.0249,1790.9424 L1290.0688,1790.9424 A0,0 0 0 0 1290.0688,1790.9424 L1290.0688,1571.6064 L1258.8188,1540.3564 L670.0249,1540.3564 A0,0 0 0 0 670.0249,1540.3564" fill="#FFF9C4" style="stroke:#F57F17;stroke-width:1.5625;"/><path d="M1258.8188,1540.3564 L1258.8188,1571.6064 L1290.0688,1571.6064 L1258.8188,1540.3564" fill="#FFF9C4" style="stroke:#F57F17;stroke-width:1.5625;"/><text fill="#000000" font-family="sans-serif" font-size="37.5" lengthAdjust="spacing" textLength="354.3457" x="751.2749" y="1657.4097">Reward computed by</text><text fill="#000000" font-family="sans-serif" font-size="37.5" lengthAdjust="spacing" textLength="429.4189" x="751.2749" y="1704.5776">Adaptation Option Verifier</text><rect fill="#E1F5FE" height="230.7373" rx="39.0625" ry="39.0625" style="stroke:#01579B;stroke-width:1.5625;" width="481.7017" x="125.8232" y="1550.2808"/><text fill="#000000" font-family="sans-serif" font-size="34.375" lengthAdjust="spacing" textLength="294.2017" x="219.5732" y="1679.715">Observe reward r_t</text><path d="M740.5319,1853.4424 L740.5319,2104.0283 L1277.2629,2104.0283 L1277.2629,1884.6924 L1246.0129,1853.4424 L740.5319,1853.4424" fill="#FFF9C4" style="stroke:#F57F17;stroke-width:1.5625;"/><path d="M1246.0129,1853.4424 L1246.0129,1884.6924 L1277.2629,1884.6924 L1246.0129,1853.4424" fill="#FFF9C4" style="stroke:#F57F17;stroke-width:1.5625;"/><text fill="#000000" font-family="sans-serif" font-size="37.5" lengthAdjust="spacing" textLength="252.1912" x="821.7819" y="1970.4956">New state after</text><text fill="#000000" font-family="sans-serif" font-size="37.5" lengthAdjust="spacing" textLength="346.106" x="821.7819" y="2017.6636">adaptation execution</text><path d="M683.2291,2166.5283 L683.2291,2417.1143 L1334.5657,2417.1143 L1334.5657,2197.7783 L1303.3157,2166.5283 L683.2291,2166.5283" fill="#FFF9C4" style="stroke:#F57F17;stroke-width:1.5625;"/><path d="M1303.3157,2166.5283 L1303.3157,2197.7783 L1334.5657,2197.7783 L1303.3157,2166.5283" fill="#FFF9C4" style="stroke:#F57F17;stroke-width:1.5625;"/><text fill="#000000" font-family="sans-serif" font-size="37.5" lengthAdjust="spacing" textLength="460.7117" x="764.4791" y="2283.5815">Generates experience tuple</text><text fill="#000000" font-family="sans-serif" font-size="37.5" lengthAdjust="spacing" textLength="345.0073" x="764.4791" y="2330.7495">&lt;s_t, a_t, r_t, s_t+1&gt;</text><rect fill="#E1F5FE" height="230.7373" rx="39.0625" ry="39.0625" style="stroke:#01579B;stroke-width:1.5625;" width="570.61" x="81.369" y="2019.9097"/><text fill="#000000" font-family="sans-serif" font-size="34.375" lengthAdjust="spacing" textLength="383.11" x="175.119" y="2149.3439">Observe next state s_t+1</text><ellipse cx="366.674" cy="2582.7393" fill="none" rx="34.375" ry="34.375" style="stroke:#222222;stroke-width:3.125;"/><ellipse cx="366.674" cy="2582.7393" fill="#222222" rx="18.75" ry="18.75" style="stroke:#222222;stroke-width:3.125;"/><line style="stroke:#181818;stroke-width:3.125;" x1="366.674" x2="366.674" y1="394.4336" y2="660.3516"/><polygon fill="#181818" points="354.174,629.1016,366.674,660.3516,379.174,629.1016,366.674,641.6016" style="stroke:#181818;stroke-width:3.125;"/><line style="stroke:#181818;stroke-width:3.125;" x1="366.674" x2="366.674" y1="1477.8564" y2="1550.2808"/><polygon fill="#181818" points="354.174,1519.0308,366.674,1550.2808,379.174,1519.0308,366.674,1531.5308" style="stroke:#181818;stroke-width:3.125;"/><line style="stroke:#181818;stroke-width:3.125;" x1="366.674" x2="366.674" y1="1781.0181" y2="2019.9097"/><polygon fill="#181818" points="354.174,1988.6597,366.674,2019.9097,379.174,1988.6597,366.674,2001.1597" style="stroke:#181818;stroke-width:3.125;"/><line style="stroke:#181818;stroke-width:3.125;" x1="366.674" x2="366.674" y1="934.3262" y2="1247.1191"/><polygon fill="#181818" points="354.174,1215.8691,366.674,1247.1191,379.174,1215.8691,366.674,1228.3691" style="stroke:#181818;stroke-width:3.125;"/><line style="stroke:#181818;stroke-width:3.125;" x1="366.674" x2="366.674" y1="2250.647" y2="2548.3643"/><polygon fill="#181818" points="354.174,2517.1143,366.674,2548.3643,379.174,2517.1143,366.674,2529.6143" style="stroke:#181818;stroke-width:3.125;"/><!--SRC=[XLFDRjf04BxxAQRf9QWWOH94arQL2CLj3csI8ZMNIj7QEvWLPjVQ7GDErSVAQ-IPElu965AhFbZUcTdlRzTl9CwLHlXyUmrd_RxdbagdmeeLo5GTLt0kieG2escc7X7yGQEv4jjlw9o8iUmD3dQAYDHQKGw_FU3dIaJBs9fCoub9Z8MtKpyO1jEgPwn4MzVx_d1qSLNMzwo-zwS1pMzIf8nkmmxEfiDW-1hxVEoVlvySOG_sQyeJXD0aye1E6y9MfY2uc9o_PWg6ey0V7QcMKkcOOsf6gFGa4SxTAqaB-5VdAwfuGGSjjn3IR0gikKWSUXm6wnv7PIGpJB3w4bh2LA-LDNg5ck1Q4rfHzdxfqy14cKC9iopitLeJyK5sFCyHP-jv-uHFZc5FwYWkgmg8cko16FJvgHTRH9b3vWfzTpsDj35ssVbGRYgZj8MXSWbmhzXsQaqeGfKKj-NvwH8iApUh6hbjqEyLeyB6V0lXxjHrHQSSHNPTq73sJHijGUpSJBSOPInkRwT5yJXDannSQPxZ4rAa91f2JLe2aE7VG_El8S7bZd1rAAvOLCGteKExPWxS22l1jXB_g0OYiqgpWZdCNnJj9C1DHVuJhPehjF_ZrBWbu2Dd9lT0x_mMvk-ugQV4d6fKQ3W7BCDxoQ1v0WTONr1pxeIEDwGi4NM4G5cQ5De-ie9kaNktoA1R2VhaxS3uQfhK-mi0]--></g></svg>