<svg xmlns="http://www.w3.org/2000/svg" xmlns:xlink="http://www.w3.org/1999/xlink" contentStyleType="text/css" data-diagram-type="ACTIVITY" height="1862.5px" preserveAspectRatio="none" style="width:1353px;height:1862px;background:#FFFFFF;" version="1.1" viewBox="0 0 1353 1862" width="1353.125px" zoomAndPan="magnify"><title>Statistical Model Checking
(Focused Sub-Process)</title><defs/><g><g class="title" data-source-line="24"><text fill="#000000" font-family="sans-serif" font-size="43.75" font-weight="bold" lengthAdjust="spacing" textLength="554.2877" x="394.9066" y="170.4163">Statistical Model Checking</text><text fill="#000000" font-family="sans-serif" font-size="43.75" font-weight="bold" lengthAdjust="spacing" textLength="488.6414" x="427.7298" y="225.4456">(Focused Sub-Process)</text></g><ellipse cx="354.2618" cy="363.1836" fill="#222222" rx="31.25" ry="31.25" style="stroke:#222222;stroke-width:3.125;"/><rect fill="#F3E5F5" height="1271.9971" style="stroke:#4A148C;stroke-width:4.6875;" width="1284.726" x="34.375" y="425.6836"/><path d="M576.0437,425.6836 L576.0437,575.9766 L544.7937,607.2266 L34.375,607.2266" fill="none" style="stroke:#4A148C;stroke-width:4.6875;"/><text fill="#000000" font-family="sans-serif" font-size="37.5" font-weight="bold" lengthAdjust="spacing" textLength="385.4187" x="106.25" y="530.2368">UPPAAL-SMC Engine</text><path d="M668.145,657.8369 L668.145,794.2139 L605.645,806.7139 L668.145,819.2139 L668.145,955.5908 A0,0 0 0 0 668.145,955.5908 L1273.5954,955.5908 A0,0 0 0 0 1273.5954,955.5908 L1273.5954,689.0869 L1242.3454,657.8369 L668.145,657.8369 A0,0 0 0 0 668.145,657.8369" fill="#FFF9C4" style="stroke:#F57F17;stroke-width:1.5625;"/><path d="M1242.3454,657.8369 L1242.3454,689.0869 L1273.5954,689.0869 L1242.3454,657.8369" fill="#FFF9C4" style="stroke:#F57F17;stroke-width:1.5625;"/><text fill="#000000" font-family="sans-serif" font-size="37.5" lengthAdjust="spacing" textLength="291.8152" x="749.395" y="774.8901">Explores different</text><text fill="#000000" font-family="sans-serif" font-size="37.5" lengthAdjust="spacing" textLength="335.6689" x="749.395" y="822.0581">execution paths and</text><text fill="#000000" font-family="sans-serif" font-size="37.5" lengthAdjust="spacing" textLength="414.8254" x="749.395" y="869.2261">environmental conditions</text><rect fill="#E1F5FE" height="273.9746" rx="39.0625" ry="39.0625" style="stroke:#01579B;stroke-width:1.5625;" width="502.7664" x="102.8786" y="669.7266"/><text fill="#000000" font-family="sans-serif" font-size="34.375" lengthAdjust="spacing" textLength="315.2664" x="196.6286" y="799.1608">Execute probabilistic</text><text fill="#000000" font-family="sans-serif" font-size="34.375" lengthAdjust="spacing" textLength="171.9421" x="196.6286" y="842.3981">simulations</text><path d="M674.1486,1018.0908 L674.1486,1268.6768 L1256.601,1268.6768 L1256.601,1049.3408 L1225.351,1018.0908 L674.1486,1018.0908" fill="#FFF9C4" style="stroke:#F57F17;stroke-width:1.5625;"/><path d="M1225.351,1018.0908 L1225.351,1049.3408 L1256.601,1049.3408 L1225.351,1018.0908" fill="#FFF9C4" style="stroke:#F57F17;stroke-width:1.5625;"/><text fill="#000000" font-family="sans-serif" font-size="37.5" lengthAdjust="spacing" textLength="348.0652" x="755.3986" y="1135.144">Statistical analysis of</text><text fill="#000000" font-family="sans-serif" font-size="37.5" lengthAdjust="spacing" textLength="391.8274" x="755.3986" y="1182.312">multiple simulation runs</text><path d="M679.3304,1331.1768 L679.3304,1628.9307 L1251.4191,1628.9307 L1251.4191,1362.4268 L1220.1691,1331.1768 L679.3304,1331.1768" fill="#FFF9C4" style="stroke:#F57F17;stroke-width:1.5625;"/><path d="M1220.1691,1331.1768 L1220.1691,1362.4268 L1251.4191,1362.4268 L1220.1691,1331.1768" fill="#FFF9C4" style="stroke:#F57F17;stroke-width:1.5625;"/><text fill="#000000" font-family="sans-serif" font-size="37.5" lengthAdjust="spacing" textLength="381.4636" x="760.5804" y="1448.23">Handles uncertainty by</text><text fill="#000000" font-family="sans-serif" font-size="37.5" lengthAdjust="spacing" textLength="331.4209" x="760.5804" y="1495.3979">considering multiple</text><text fill="#000000" font-family="sans-serif" font-size="37.5" lengthAdjust="spacing" textLength="262.6465" x="760.5804" y="1542.5659">possible futures</text><rect fill="#E1F5FE" height="273.9746" rx="39.0625" ry="39.0625" style="stroke:#01579B;stroke-width:1.5625;" width="577.2736" x="65.625" y="1186.5234"/><text fill="#000000" font-family="sans-serif" font-size="34.375" lengthAdjust="spacing" textLength="389.7736" x="159.375" y="1315.9576">Estimate goal satisfaction</text><text fill="#000000" font-family="sans-serif" font-size="34.375" lengthAdjust="spacing" textLength="183.4396" x="159.375" y="1359.1949">probabilities</text><ellipse cx="354.2618" cy="1794.5557" fill="none" rx="34.375" ry="34.375" style="stroke:#222222;stroke-width:3.125;"/><ellipse cx="354.2618" cy="1794.5557" fill="#222222" rx="18.75" ry="18.75" style="stroke:#222222;stroke-width:3.125;"/><line style="stroke:#181818;stroke-width:3.125;" x1="354.2618" x2="354.2618" y1="943.7012" y2="1186.5234"/><polygon fill="#181818" points="341.7618,1155.2734,354.2618,1186.5234,366.7618,1155.2734,354.2618,1167.7734" style="stroke:#181818;stroke-width:3.125;"/><line style="stroke:#181818;stroke-width:3.125;" x1="354.2618" x2="354.2618" y1="394.4336" y2="669.7266"/><polygon fill="#181818" points="341.7618,638.4766,354.2618,669.7266,366.7618,638.4766,354.2618,650.9766" style="stroke:#181818;stroke-width:3.125;"/><line style="stroke:#181818;stroke-width:3.125;" x1="354.2618" x2="354.2618" y1="1460.498" y2="1760.1807"/><polygon fill="#181818" points="341.7618,1728.9307,354.2618,1760.1807,366.7618,1728.9307,354.2618,1741.4307" style="stroke:#181818;stroke-width:3.125;"/><!--SRC=[TLFDRzem5B_xh_2wotQeH2Y8jJlHB54d3Ga9LRjmSUANy5Jp7Fav7Mpg_xwN5Cf72uT8VZ_xzsNpoKA51Fh7_AU-6GmKFo4r9fYrjWsUJw0ohOkvfxZ0lw2JuH6uDfiPC9iQUcnuSjAK4PynRlK_fULtRygdElYMREgT3_fpbkJZF7l5VB0GTlD1CfxStlVpWsgYNewevHinegTBtFbDDix7xxb7qsJqBJtZ7XxMSUj05zxP4pdo4IugvVbjEdglb8ydUJ8vSsqjKYqr7LU8b3h3_1jjNEcFa0V0UXLF85uPw_zqN9Ln34hA4D-BQ29onD8uFVCMd4vNKCgXUabVSb-s35Olsk9w7dmfr_PLAOxIf5A7FgyUv_FfzDVrOfRgZ6fv9LUxv7VP1ifMYcY2Bqo1hfTQ4kEwTQOxpD_xZNrReVFSBxNEDerK0gmjLXK4e3q0FMCdsvYuOct8xX5wnk1fBNibJEd9zlPOlOAs5-aNEs_YPMr4j_QodxiUgkxzULhIcz-8SCdYSNM6ZDioilRL3fM04Hjf-91LX_RSpOjI9xmF4iT9wfPA2D4WoL-Xs0eWSHZbfNJtjwUMSUEPiH2LgesjrANUcEMQVAF-0m00]--></g></svg>